<svg width="150" height="150" viewBox="0 0 150 150" fill="none" xmlns="http://www.w3.org/2000/svg">
<g clip-path="url(#clip0_11_245)">
<path d="M54.1667 20.8334H16.6667C12.2464 20.8334 8.00716 22.5893 4.88155 25.7149C1.75595 28.8405 0 33.0798 0 37.5L0 75H54.1667V20.8334ZM34.7375 59.55L26.8958 53.8542L19.0542 59.55L22.05 50.3334L14.2083 44.6334H23.9L26.8958 35.4167L29.8917 44.6334H39.5833L31.7417 50.3334L34.7375 59.55Z" fill="#1F429B"/>
<path d="M133.333 20.8334H54.1667V75H150V37.5C150 33.0798 148.244 28.8405 145.119 25.7149C141.993 22.5893 137.754 20.8334 133.333 20.8334Z" fill="#EEEEEE"/>
<path d="M0 75V112.5C0 116.92 1.75595 121.16 4.88155 124.285C8.00716 127.411 12.2464 129.167 16.6667 129.167H133.333C137.754 129.167 141.993 127.411 145.118 124.285C148.244 121.16 150 116.92 150 112.5V75H0Z" fill="#D42D27"/>
<path d="M29.8916 44.6333L26.8958 35.4166L23.8999 44.6333H14.2083L22.0499 50.3333L19.0541 59.55L26.8958 53.8541L34.7374 59.55L31.7416 50.3333L39.5833 44.6333H29.8916Z" fill="white"/>
</g>
<defs>
<clipPath id="clip0_11_245">
<rect width="150" height="150" fill="white"/>
</clipPath>
</defs>
</svg>
