<svg width="400" height="241" viewBox="0 0 400 241" fill="none" xmlns="http://www.w3.org/2000/svg">
<path d="M44.9313 0.856869L40.4026 1.34625L37.9548 14.4427C21.7987 101.833 -0.599604 226.554 0.0122727 227.042C0.379458 227.409 5.03066 228.023 10.4159 228.51L20.2074 229.245L62.4337 210.642L104.782 192.159L116.41 199.87C129.139 208.439 145.173 215.171 161.329 218.596C169.407 220.432 176.628 220.923 193.763 220.799C213.347 220.679 217.142 220.312 227.544 217.495C234.032 215.782 243.212 212.721 247.985 210.765L256.675 207.214L273.932 223.737L291.313 240.26L302.082 229.368C308.08 223.37 332.558 198.034 356.425 173.189L399.877 127.903L400 117.866V107.83L343.574 53.9762C312.61 24.2342 286.784 0 286.173 0C285.559 0 276.746 8.68995 266.589 19.3383L248.106 38.7991L238.071 35.8616C214.325 29.0076 188.869 26.8045 168.917 29.8645C154.352 32.0676 134.892 38.1872 122.163 44.6741L113.472 49.0803L106.374 42.5934C102.457 39.0441 90.7069 28.0285 80.3036 17.9921L61.3321 0L55.335 0.244697C52.0303 0.367189 47.3791 0.611884 44.9313 0.856869ZM124.366 66.583L178.464 117.989V124.72C178.464 131.207 178.709 131.697 184.706 137.817C190.458 143.569 190.825 144.304 188.745 145.405C187.4 146.017 178.219 150.301 168.061 154.83L149.824 163.153L143.337 159.725C139.665 157.89 134.524 154.34 131.832 151.892L126.814 147.486L142.847 140.142C151.66 136.103 158.636 132.431 158.514 132.064C157.78 129.739 80.0586 58.7496 79.3242 59.6064C78.2226 60.8302 55.8244 177.595 56.5587 178.329C56.8037 178.697 63.0459 176.249 70.3896 173.189C77.6108 170.007 84.2201 167.192 85.077 166.824C85.8113 166.579 86.7904 167.436 87.2801 168.905C87.7694 170.374 90.8294 175.147 94.1341 179.553C97.5613 183.96 100.009 187.754 99.7643 187.999C99.1522 188.611 21.309 222.635 21.0643 222.392C20.9418 222.268 29.6321 173.678 40.2804 114.439C50.9288 55.2002 59.7412 6.48684 59.7412 6.36464C59.7412 5.50778 71.8583 16.768 124.366 66.583ZM341.25 58.9943C370.869 87.39 394.98 111.012 394.859 111.624C394.245 113.215 292.291 219.087 291.313 219.087C290.823 219.087 285.926 214.557 280.298 208.929L270.26 198.892L276.993 193.507C280.665 190.57 285.192 186.163 287.027 183.715C288.863 181.267 303.918 165.233 320.321 148.098C336.844 130.963 351.899 115.174 353.855 113.093L357.283 109.299L322.644 75.8848L288.009 42.471L269.282 61.9318C259.001 72.7026 243.579 88.7363 235.134 97.6712L219.589 113.95L237.214 131.575L254.715 149.077L251.167 152.259C249.207 153.973 244.19 157.155 240.151 159.358L232.564 163.275L207.348 138.918L182.014 114.684L192.908 103.546C198.783 97.4265 222.036 73.3145 244.434 49.8147C266.956 26.4373 285.682 7.3437 286.293 7.3437C286.784 7.3437 311.508 30.5988 341.25 58.9943ZM212.245 36.1066C223.995 38.1872 242.11 42.7159 242.11 43.695C242.11 43.9397 238.682 47.9787 234.643 52.5074L227.056 60.8302L221.915 59.2393C213.47 56.7912 193.642 54.833 184.83 55.6896C167.938 57.2808 147.376 63.2783 139.175 69.0308C136.605 70.7442 135.993 70.377 127.548 62.7886C122.53 58.2599 118.491 54.3434 118.491 53.8537C118.491 53.3643 123.876 50.4268 130.485 47.3668C142.113 41.8591 156.066 37.4529 167.326 35.4944C177.118 33.9035 200.986 34.1482 212.245 36.1066ZM321.299 95.3456L343.574 116.642L322.524 138.429C311.018 150.423 301.471 160.093 301.348 159.97C301.227 159.848 302.205 155.564 303.551 150.546C307.102 137.082 307.957 111.991 305.143 101.588C302.573 91.7962 297.309 80.9032 290.946 72.4579C288.252 68.9083 286.416 65.4814 286.784 64.747C287.762 63.2783 290.823 65.9708 321.299 95.3456ZM284.704 73.6817C289.11 78.4551 295.72 90.5722 298.657 99.0174C302.205 109.544 302.449 125.944 299.145 135.858C288.987 166.335 256.675 189.835 215.183 197.179C202.331 199.382 177.73 199.136 164.511 196.565C144.806 192.773 125.712 184.327 111.147 173.189C83.1185 151.647 73.8164 118.111 88.1366 90.0828L90.5847 85.3094L98.6628 93.3874L106.741 101.466V114.195C106.863 126.312 107.108 127.168 111.514 136.103C119.592 152.626 139.175 166.947 161.941 173.189C173.324 176.371 201.353 176.983 214.081 174.413C241.129 169.028 262.549 154.707 271.852 135.858C278.582 122.15 277.848 103.179 270.017 89.4706L267.69 85.3094L270.504 82.1269C276.87 74.7832 280.542 70.9892 281.276 70.9892C281.766 70.9892 283.235 72.2129 284.704 73.6817ZM82.9961 88.1244C75.4077 103.056 73.9389 123.129 78.8348 143.814C79.6914 147.853 80.5483 151.77 80.5483 152.504C80.5483 153.973 67.3296 159.725 66.3505 158.746C65.7384 158.134 79.8139 81.8822 81.2826 77.2313C81.7723 75.7626 82.3842 75.8848 84.3426 77.9657L86.9129 80.4135L82.9961 88.1244ZM206.981 78.2104C208.817 78.9447 206.737 81.6375 194.009 94.8562L178.831 110.645L174.058 106.851C171.488 104.77 165.245 98.8952 160.227 93.7546L151.17 84.575L159.86 82.0047C164.511 80.536 171.12 78.9448 174.425 78.3329C181.769 77.1088 204.044 76.9863 206.981 78.2104ZM268.548 115.296L271.485 121.171L269.159 127.903C267.813 131.575 264.996 137.082 262.793 140.142L258.754 145.772L246.15 133.166C235.745 122.762 233.909 120.314 235.011 118.845C235.868 117.744 240.642 112.603 245.659 107.34L254.962 97.7937L260.223 103.546C263.16 106.728 266.832 111.991 268.548 115.296ZM136.85 130.963C136.85 131.33 132.688 133.043 127.67 134.879L118.491 138.062L116.165 133.655C112.249 125.822 112.126 124.108 114.941 117.499L117.634 111.257L127.303 120.804C132.566 125.944 136.85 130.595 136.85 130.963ZM206.37 158.746L216.775 168.171L213.223 169.15C201.964 172.332 176.751 171.475 162.675 167.314L157.29 165.845L174.915 157.645C184.583 153.239 193.275 149.444 194.253 149.444C195.111 149.322 200.619 153.606 206.37 158.746Z" fill="#151515"/>
</svg>
