<svg width="417" height="150" viewBox="0 0 417 150" fill="none" xmlns="http://www.w3.org/2000/svg">
<path d="M240.458 35.4169C238.292 35.6252 236.5 35.8752 236.458 35.9169C236.333 36.0836 228.75 68.9169 228.75 69.2919C228.75 69.4586 231.458 69.5835 234.75 69.5835H240.75L241.667 65.5002C242.167 63.2919 242.708 60.8752 242.875 60.2086L243.208 58.9586L243.917 60.6252C244.292 61.5419 245.25 63.9169 245.958 65.9169L247.292 69.5835H254.083H260.875L260.583 68.6252C260.167 67.2086 255.833 58.6252 255.167 57.8752C254.667 57.2919 254.833 57.1252 256.833 56.2919C261.375 54.4169 264.25 50.0419 264.333 45.0419C264.375 40.3336 262.125 37.5002 257.333 36.0002C254.75 35.2086 245.958 34.9169 240.458 35.4169ZM250.75 44.8336C252.625 46.1669 251.458 49.5836 248.625 50.8752C246.708 51.7502 245 51.9169 245 51.2502C245 50.8336 246.125 45.8752 246.5 44.6669C246.708 43.9586 249.625 44.0419 250.75 44.8336Z" fill="white"/>
<path d="M277.708 35.4167C270.375 36.9167 265.625 41.125 265.125 46.5834C264.708 50.9584 266.625 53.25 273.458 56.7084C275.208 57.625 276.667 58.5834 276.667 58.9167C276.667 60.9584 272.583 61.4167 267.583 59.9584C265.917 59.4584 264.458 59.125 264.333 59.25C263.958 59.625 261.625 68.4167 261.833 68.625C262.292 69.0834 267.042 70 270.208 70.25C280.625 71.0834 289.167 65.2917 289.167 57.4167C289.167 53.25 287.417 51.1667 281.5 48.3334C279.542 47.4167 277.833 46.4584 277.708 46.2084C277.542 46 277.75 45.4167 278.167 44.9584C279.083 43.9584 281.708 43.9167 285.083 44.8334C286.542 45.25 287.708 45.375 287.917 45.1667C288.5 44.5417 290.458 36.5417 290.125 36.2084C289.125 35.25 281.125 34.75 277.708 35.4167Z" fill="white"/>
<path d="M53.2915 35.7082L51.7498 35.8748L50.9165 40.3332C45.4165 70.0832 37.7915 112.542 37.9998 112.708C38.1248 112.833 39.7082 113.042 41.5415 113.208L44.8748 113.458L59.2498 107.125L73.6665 100.833L77.6248 103.458C81.9582 106.375 87.4165 108.667 92.9165 109.833C95.6665 110.458 98.1248 110.625 103.958 110.583C110.625 110.542 111.917 110.417 115.458 109.458C117.667 108.875 120.792 107.833 122.417 107.167L125.375 105.958L131.25 111.583L137.167 117.208L140.833 113.5C142.875 111.458 151.208 102.833 159.333 94.3748L174.125 78.9582L174.167 75.5415V72.1248L154.958 53.7915C144.417 43.6665 135.625 35.4165 135.417 35.4165C135.208 35.4165 132.208 38.3748 128.75 41.9998L122.458 48.6248L119.042 47.6248C110.958 45.2915 102.292 44.5415 95.4998 45.5832C90.5415 46.3332 83.9165 48.4165 79.5832 50.6248L76.6248 52.1248L74.2082 49.9165C72.8748 48.7082 68.8748 44.9582 65.3332 41.5415L58.8748 35.4165L56.8332 35.4998C55.7082 35.5415 54.1248 35.6248 53.2915 35.7082ZM80.3332 58.0832L98.7498 75.5832V77.8748C98.7498 80.0832 98.8332 80.2498 100.875 82.3332C102.833 84.2915 102.958 84.5415 102.25 84.9165C101.792 85.1248 98.6665 86.5832 95.2082 88.1248L88.9998 90.9582L86.7915 89.7915C85.5415 89.1665 83.7915 87.9582 82.8748 87.1248L81.1665 85.6248L86.6248 83.1248C89.6248 81.7498 91.9998 80.4998 91.9582 80.3748C91.7082 79.5832 65.2498 55.4165 64.9998 55.7082C64.6248 56.1248 56.9998 95.8748 57.2498 96.1248C57.3332 96.2498 59.4582 95.4165 61.9582 94.3748C64.4165 93.2915 66.6665 92.3332 66.9582 92.2082C67.2082 92.1248 67.5415 92.4165 67.7082 92.9165C67.8748 93.4165 68.9165 95.0415 70.0415 96.5415C71.2082 98.0415 72.0415 99.3332 71.9582 99.4165C71.7498 99.6248 45.2498 111.208 45.1665 111.125C45.1248 111.083 48.0832 94.5415 51.7082 74.3748C55.3332 54.2082 58.3332 37.6248 58.3332 37.5832C58.3332 37.2915 62.4582 41.1248 80.3332 58.0832ZM154.167 55.4998C164.25 65.1665 172.458 73.2082 172.417 73.4165C172.208 73.9582 137.5 110 137.167 110C137 110 135.333 108.458 133.417 106.542L130 103.125L132.292 101.292C133.542 100.292 135.083 98.7915 135.708 97.9582C136.333 97.1248 141.458 91.6665 147.042 85.8332C152.667 79.9998 157.792 74.6248 158.458 73.9165L159.625 72.6248L147.833 61.2498L136.042 49.8748L129.667 56.4998C126.167 60.1665 120.917 65.6248 118.042 68.6665L112.75 74.2082L118.75 80.2082L124.708 86.1665L123.5 87.2498C122.833 87.8332 121.125 88.9165 119.75 89.6665L117.167 90.9998L108.583 82.7082L99.9582 74.4582L103.667 70.6665C105.667 68.5832 113.583 60.3748 121.208 52.3748C128.875 44.4165 135.25 37.9165 135.458 37.9165C135.625 37.9165 144.042 45.8332 154.167 55.4998ZM110.25 47.7082C114.25 48.4165 120.417 49.9582 120.417 50.2915C120.417 50.3748 119.25 51.7498 117.875 53.2915L115.292 56.1248L113.542 55.5832C110.667 54.7498 103.917 54.0832 100.917 54.3748C95.1665 54.9165 88.1665 56.9582 85.3748 58.9165C84.4998 59.4998 84.2915 59.3748 81.4165 56.7915C79.7082 55.2498 78.3332 53.9165 78.3332 53.7498C78.3332 53.5832 80.1665 52.5832 82.4165 51.5415C86.3748 49.6665 91.1248 48.1665 94.9582 47.4998C98.2915 46.9582 106.417 47.0415 110.25 47.7082ZM147.375 67.8748L154.958 75.1248L147.792 82.5415C143.875 86.6248 140.625 89.9165 140.583 89.8748C140.542 89.8332 140.875 88.3748 141.333 86.6665C142.542 82.0832 142.833 73.5415 141.875 69.9998C141 66.6665 139.208 62.9582 137.042 60.0832C136.125 58.8748 135.5 57.7082 135.625 57.4582C135.958 56.9582 137 57.8748 147.375 67.8748ZM134.917 60.4998C136.417 62.1248 138.667 66.2498 139.667 69.1248C140.875 72.7082 140.958 78.2915 139.833 81.6665C136.375 92.0415 125.375 100.042 111.25 102.542C106.875 103.292 98.4998 103.208 93.9998 102.333C87.2915 101.042 80.7915 98.1665 75.8332 94.3748C66.2915 87.0415 63.1248 75.6248 67.9998 66.0832L68.8332 64.4582L71.5832 67.2082L74.3332 69.9582V74.2915C74.3748 78.4165 74.4582 78.7082 75.9582 81.7498C78.7082 87.3748 85.3748 92.2498 93.1248 94.3748C96.9998 95.4582 106.542 95.6665 110.875 94.7915C120.083 92.9582 127.375 88.0832 130.542 81.6665C132.833 76.9998 132.583 70.5415 129.917 65.8748L129.125 64.4582L130.083 63.3748C132.25 60.8748 133.5 59.5832 133.75 59.5832C133.917 59.5832 134.417 59.9998 134.917 60.4998ZM66.2498 65.4165C63.6665 70.4998 63.1665 77.3332 64.8332 84.3748C65.1248 85.7498 65.4165 87.0832 65.4165 87.3332C65.4165 87.8332 60.9165 89.7915 60.5832 89.4582C60.3748 89.2498 65.1665 63.2915 65.6665 61.7082C65.8332 61.2082 66.0415 61.2498 66.7082 61.9582L67.5832 62.7915L66.2498 65.4165ZM108.458 62.0415C109.083 62.2915 108.375 63.2082 104.042 67.7082L98.8748 73.0832L97.2498 71.7915C96.3748 71.0832 94.2498 69.0832 92.5415 67.3332L89.4582 64.2082L92.4165 63.3332C93.9998 62.8332 96.2498 62.2915 97.3748 62.0832C99.8748 61.6665 107.458 61.6248 108.458 62.0415ZM129.417 74.6665L130.417 76.6665L129.625 78.9582C129.167 80.2082 128.208 82.0832 127.458 83.1248L126.083 85.0415L121.792 80.7498C118.25 77.2082 117.625 76.3748 118 75.8748C118.292 75.4998 119.917 73.7498 121.625 71.9582L124.792 68.7082L126.583 70.6665C127.583 71.7498 128.833 73.5415 129.417 74.6665ZM84.5832 79.9998C84.5832 80.1248 83.1665 80.7082 81.4582 81.3332L78.3332 82.4165L77.5415 80.9165C76.2082 78.2498 76.1665 77.6665 77.1248 75.4165L78.0415 73.2915L81.3332 76.5415C83.1248 78.2915 84.5832 79.8748 84.5832 79.9998ZM108.25 89.4582L111.792 92.6665L110.583 92.9998C106.75 94.0832 98.1665 93.7915 93.3748 92.3748L91.5415 91.8748L97.5415 89.0832C100.833 87.5832 103.792 86.2915 104.125 86.2915C104.417 86.2498 106.292 87.7082 108.25 89.4582Z" fill="white"/>
<path d="M195 36.1668C195 36.3335 193.333 43.7501 191.25 52.6251C189.208 61.5001 187.5 68.9585 187.5 69.1668C187.5 69.4168 189.833 69.5835 193.667 69.5835H199.792L200.792 65.1251C201.333 62.7085 201.958 60.0835 202.167 59.3335L202.542 57.9585L208.208 57.8335L213.917 57.7085L214.875 53.9585C215.375 51.8751 215.833 49.9585 215.833 49.6668C215.833 49.2918 214.417 49.1668 210.167 49.1668H204.5L204.792 47.7918C205.417 44.7918 204.917 45.0001 211 45.0001H216.5L217.458 40.9168C218 38.7085 218.542 36.6251 218.625 36.3335C218.792 35.9585 216.292 35.8335 206.917 35.8335C200.375 35.8335 195 35.9585 195 36.1668Z" fill="white"/>
<path d="M221.25 36.0418C221.25 36.1668 219.583 43.5418 217.5 52.4585C215.458 61.3751 213.75 68.8751 213.75 69.1251C213.75 69.4585 215.458 69.5835 219.875 69.5001L226 69.3751L229.875 52.9168C231.958 43.8751 233.708 36.3335 233.708 36.1251C233.75 35.9585 230.958 35.8335 227.5 35.8335C224.083 35.8335 221.25 35.9168 221.25 36.0418Z" fill="white"/>
<path d="M290.917 40.3335C290.167 42.7918 289.583 45.0418 289.583 45.3335C289.583 45.7085 290.75 45.8335 293.958 45.8335C297.333 45.8335 298.333 45.9585 298.333 46.3751C298.333 46.8335 296.917 52.9585 293.125 68.6251L292.917 69.5835H299.125H305.333L307 62.5835C307.917 58.7501 309.208 53.4168 309.833 50.7085L311 45.8335H315.292C319.375 45.8335 319.583 45.7918 319.792 44.8751C320.167 43.1668 321.667 36.0835 321.667 35.9585C321.667 35.8751 315.042 35.8335 306.958 35.8335H292.208L290.917 40.3335Z" fill="white"/>
<path d="M308.583 64.0001C306.792 65.7501 307.542 68.6251 309.917 69.3334C311.042 69.6251 311.5 69.5834 312.417 68.8751C313.917 67.7501 314.167 65.4168 312.958 64.2084C311.917 63.1668 309.5 63.0418 308.583 64.0001ZM312.25 64.8334C312.958 65.5418 313.167 67.5001 312.542 67.5001C312.292 67.5001 312.083 66.8751 312 66.1668C311.917 65.0418 311.667 64.7501 310.625 64.5418C309.375 64.2501 309.375 64.2501 310.5 64.2084C311.125 64.2084 311.917 64.4584 312.25 64.8334ZM310.75 67.9168C312.042 67.9584 312.167 68.0001 311.5 68.3751C309.875 69.3334 307.583 66.9168 308.625 65.3334C308.833 64.9584 309 65.3334 309.083 66.3334C309.208 67.8334 309.292 67.9168 310.75 67.9168Z" fill="white"/>
<path d="M199.792 76.7919C191.875 79.4169 187.5 85.9586 187.5 95.2086C187.5 101.25 189.333 105.958 193 109.417C196.208 112.417 198.958 113.458 204 113.667C207.625 113.833 208.458 113.708 210.333 112.917C211.5 112.417 212.708 111.75 212.958 111.417C213.708 110.542 214.083 110.708 214.375 112.083L214.667 113.333H217.958H221.25V103.125V92.9169H213.125H205V96.6669V100.417H208.542C212.458 100.417 212.625 100.583 211.25 102.792C210.125 104.708 208.167 105.583 205.208 105.625C203.292 105.625 202.333 105.375 201.125 104.667C196.25 101.583 195.417 91.4586 199.75 86.7503C201.125 85.2086 202.667 84.5836 205.125 84.5836C207.958 84.5836 209.875 85.7919 211.042 88.2086L211.833 90.0003H216.375H220.917L220.625 88.6253C219.542 83.2919 216.875 79.7086 212.417 77.7086C210.167 76.6669 209.167 76.4586 205.625 76.3753C202.958 76.2919 200.833 76.4586 199.792 76.7919Z" fill="white"/>
<path d="M263.208 76.6665C253.417 78.3332 246.25 88.4999 247.917 98.3749C250.5 113.667 269.125 119.708 280.042 108.792C290.667 98.1665 285.25 79.9999 270.542 76.8749C267.458 76.2082 266.208 76.1665 263.208 76.6665ZM265.292 86.0832C265.042 86.3332 260.708 85.4582 260.333 85.0832C259.833 84.5832 262.333 80.9999 263.875 80.0415L265.208 79.2082L265.333 82.5832C265.417 84.4165 265.375 85.9999 265.292 86.0832ZM271.875 82.7082C272.667 83.7915 273.208 84.8332 273.125 84.9999C273 85.1665 272.208 85.4582 271.375 85.6249C270.5 85.7499 269.375 85.9999 268.875 86.1249C267.917 86.3332 267.917 86.2499 267.917 82.7082V79.0832L269.208 79.8749C269.875 80.3332 271.125 81.5832 271.875 82.7082ZM258.625 82.4582L257.625 84.2082L256.667 83.4165L255.708 82.6249L257.5 81.5415C258.542 80.9582 259.417 80.4999 259.458 80.5832C259.542 80.6665 259.167 81.4999 258.625 82.4582ZM276.583 82.1249L277.542 82.8332L276.583 83.4999C275.708 84.1249 275.625 84.0832 274.708 82.4582C274.167 81.4999 273.75 80.6665 273.75 80.5832C273.75 80.2915 275.458 81.2499 276.583 82.1249ZM256.417 87.1665C256.208 90.3332 255.667 93.3332 255.25 93.3332C254.458 93.3332 250.833 90.9165 250.833 90.4165C250.833 89.8332 251.917 87.6665 253.042 85.9582L253.958 84.6249L255.208 85.4165C256.042 85.9582 256.458 86.5415 256.417 87.1665ZM281.625 88.2082C282.083 89.1665 282.5 90.1665 282.5 90.3749C282.5 90.8749 279.833 92.6665 278.458 93.0832C277.583 93.3749 277.5 93.2499 277.458 91.7915C277.458 90.9165 277.208 89.3749 276.958 88.3332L276.458 86.4582L277.875 85.5832L279.333 84.6665L280.042 85.5832C280.417 86.0415 281.125 87.2499 281.625 88.2082ZM263.25 88.2082L265.417 88.4582V91.9165V95.4165H264.167C262.583 95.4165 258.625 94.5832 258.167 94.1665C257.833 93.8332 258.542 88.5832 259.042 87.7915C259.167 87.5832 259.667 87.5415 260.167 87.6665C260.625 87.8332 262.042 88.0415 263.25 88.2082ZM274.917 90.5415C275.25 92.1249 275.375 93.6249 275.292 93.9582C275.083 94.4582 270.833 95.4165 268.833 95.4165C267.958 95.4165 267.917 95.2499 267.917 91.8749V88.3332L269.5 88.2915C270.333 88.2499 271.5 88.0832 272.083 87.9165C274.042 87.2915 274.333 87.5832 274.917 90.5415ZM255.625 97.9165C255.75 98.9582 255.958 100.417 256.083 101.125C256.208 102.083 256.125 102.5 255.75 102.5C255.417 102.5 254.167 101.875 252.917 101.125C250.458 99.6665 250.125 98.9999 250.042 95.5832L250 93.4165L252.667 94.7499C255.292 95.9999 255.375 96.0832 255.625 97.9165ZM283.042 98.3749C282.667 99.7499 280.292 101.583 277.958 102.292C277 102.583 276.958 102.5 277.25 101.25C277.375 100.5 277.5 99.0832 277.5 98.1249V96.3332L280.333 94.9165L283.125 93.5415L283.25 95.2915C283.333 96.2082 283.208 97.6249 283.042 98.3749ZM263.458 97.7082L265.417 97.9582V101.292V104.625L263.25 104.333C259.083 103.792 259 103.708 258.458 101.208C258.208 99.9582 257.958 98.4582 257.958 97.8749C257.917 96.7915 257.958 96.7915 259.708 97.1249C260.667 97.2915 262.333 97.5832 263.458 97.7082ZM275.208 98.6249C275.083 99.7499 274.75 101.333 274.542 102.167C274.167 103.625 274.042 103.708 272.167 103.958C271.083 104.083 269.708 104.333 269.083 104.417L267.917 104.667V101.292V97.9582L269.917 97.7082C271.5 97.4999 274.667 96.9165 275.375 96.7082C275.458 96.6665 275.375 97.5415 275.208 98.6249ZM258.292 108L259.542 110.417L258.208 109.75C256.833 109 252.5 104.792 252.5 104.167C252.5 104 253.542 104.208 254.75 104.708C256.792 105.542 257.167 105.875 258.292 108ZM280.125 105.042C279.292 106.458 277.042 108.542 275.083 109.708L273.792 110.417L275 108.042C276.083 105.875 276.458 105.542 278.417 104.708C279.625 104.25 280.667 103.792 280.75 103.792C280.833 103.75 280.542 104.333 280.125 105.042ZM264 106.667H265.417V109.167C265.417 110.542 265.25 111.667 265 111.667C264.333 111.667 261.75 109.208 260.833 107.625L259.958 106.125L261.292 106.417C262 106.542 263.25 106.667 264 106.667ZM272.917 106.458C272.917 107.667 269.375 111.667 268.333 111.667C268.083 111.667 267.917 110.542 267.917 109.208V106.708L269.917 106.542C271 106.458 272.125 106.375 272.417 106.333C272.667 106.292 272.917 106.333 272.917 106.458Z" fill="white"/>
<path d="M222.917 95.2085V113.333H236.042H249.167V109.167V105H240.833H232.5V91.0418V77.0835H227.708H222.917V95.2085Z" fill="white"/>
<path d="M287.083 95.2082V113.417L297.833 113.208C304.042 113.125 309.167 112.833 310 112.583C312.667 111.708 315.292 109.75 316.542 107.625C317.542 105.875 317.708 105.208 317.708 102.292C317.708 98.4582 316.792 96.2082 314.5 94.4165L313.167 93.3749L314.042 92.4165C316.958 89.2915 316.958 83.2082 314.042 80.0832C313.542 79.5415 312.375 78.6665 311.458 78.2082C309.875 77.3332 309.125 77.2915 298.458 77.1665L287.083 77.0415V95.2082ZM306.042 85.8332C307.375 87.0832 307.375 88.4999 306.042 89.7915C305.125 90.7499 304.75 90.8332 300.833 90.8332H296.667V87.6665V84.4999L300.833 84.6665C304.5 84.7915 305.083 84.9165 306.042 85.8332ZM306.625 98.5415C307.958 99.2082 308.333 99.9165 308.333 101.708C308.333 104.667 306.792 105.417 300.792 105.417H296.667V101.667V97.9165H301.042C304.125 97.9165 305.833 98.1249 306.625 98.5415Z" fill="white"/>
<path d="M322.167 94.9168C318.458 104.75 315.417 112.875 315.417 113.042C315.417 113.208 317.542 113.333 320.167 113.333H324.958L325.75 111.125C326.208 109.958 326.792 108.167 327.083 107.167L327.625 105.417H333.375H339.083L340.417 109.375L341.75 113.333H346.75C350.583 113.333 351.708 113.208 351.542 112.792C351.458 112.542 348.375 104.375 344.792 94.6668L338.208 77.0835H333.542H328.917L322.167 94.9168ZM336.25 97.5835C336.25 97.7918 334.958 97.9168 333.375 97.9168H330.458L331.667 94.4585C332.292 92.5835 332.958 90.7085 333.125 90.2501C333.375 89.6668 333.792 90.4585 334.875 93.3751C335.625 95.5418 336.25 97.4168 336.25 97.5835Z" fill="white"/>
<path d="M352.917 95.2085V113.333H365.833H378.75V109.167V105H370.417H362.083V91.0418V77.0835H357.5H352.917V95.2085Z" fill="white"/>
</svg>
