<svg width="417" height="150" viewBox="0 0 417 150" fill="none" xmlns="http://www.w3.org/2000/svg">
<path d="M240.458 35.4167C238.292 35.625 236.5 35.875 236.458 35.9167C236.333 36.0834 228.75 68.9167 228.75 69.2917C228.75 69.4584 231.458 69.5834 234.75 69.5834H240.75L241.667 65.5C242.167 63.2917 242.708 60.875 242.875 60.2084L243.208 58.9584L243.917 60.625C244.292 61.5417 245.25 63.9167 245.958 65.9167L247.292 69.5834H254.083H260.875L260.583 68.625C260.167 67.2084 255.833 58.625 255.167 57.875C254.667 57.2917 254.833 57.125 256.833 56.2917C261.375 54.4167 264.25 50.0417 264.333 45.0417C264.375 40.3334 262.125 37.5 257.333 36C254.75 35.2084 245.958 34.9167 240.458 35.4167ZM250.75 44.8334C252.625 46.1667 251.458 49.5834 248.625 50.875C246.708 51.75 245 51.9167 245 51.25C245 50.8334 246.125 45.875 246.5 44.6667C246.708 43.9584 249.625 44.0417 250.75 44.8334Z" fill="#151515"/>
<path d="M277.708 35.4167C270.375 36.9167 265.625 41.125 265.125 46.5834C264.708 50.9584 266.625 53.25 273.458 56.7084C275.208 57.625 276.667 58.5834 276.667 58.9167C276.667 60.9584 272.583 61.4167 267.583 59.9584C265.917 59.4584 264.458 59.125 264.333 59.25C263.958 59.625 261.625 68.4167 261.833 68.625C262.292 69.0834 267.042 70 270.208 70.25C280.625 71.0834 289.167 65.2917 289.167 57.4167C289.167 53.25 287.417 51.1667 281.5 48.3334C279.542 47.4167 277.833 46.4584 277.708 46.2084C277.542 46 277.75 45.4167 278.167 44.9584C279.083 43.9584 281.708 43.9167 285.083 44.8334C286.542 45.25 287.708 45.375 287.917 45.1667C288.5 44.5417 290.458 36.5417 290.125 36.2084C289.125 35.25 281.125 34.75 277.708 35.4167Z" fill="#151515"/>
<path d="M53.2917 35.7084L51.75 35.875L50.9167 40.3334C45.4167 70.0834 37.7917 112.542 38 112.708C38.125 112.833 39.7084 113.042 41.5417 113.208L44.875 113.458L59.25 107.125L73.6667 100.833L77.625 103.458C81.9584 106.375 87.4167 108.667 92.9167 109.833C95.6667 110.458 98.125 110.625 103.958 110.583C110.625 110.542 111.917 110.417 115.458 109.458C117.667 108.875 120.792 107.833 122.417 107.167L125.375 105.958L131.25 111.583L137.167 117.208L140.833 113.5C142.875 111.458 151.208 102.833 159.333 94.375L174.125 78.9584L174.167 75.5417V72.125L154.958 53.7917C144.417 43.6667 135.625 35.4167 135.417 35.4167C135.208 35.4167 132.208 38.375 128.75 42L122.458 48.625L119.042 47.625C110.958 45.2917 102.292 44.5417 95.5 45.5834C90.5417 46.3334 83.9167 48.4167 79.5834 50.625L76.625 52.125L74.2084 49.9167C72.875 48.7084 68.875 44.9584 65.3334 41.5417L58.875 35.4167L56.8334 35.5C55.7084 35.5417 54.125 35.625 53.2917 35.7084ZM80.3334 58.0834L98.75 75.5834V77.875C98.75 80.0834 98.8334 80.25 100.875 82.3334C102.833 84.2917 102.958 84.5417 102.25 84.9167C101.792 85.125 98.6667 86.5834 95.2084 88.125L89 90.9584L86.7917 89.7917C85.5417 89.1667 83.7917 87.9584 82.875 87.125L81.1667 85.625L86.625 83.125C89.625 81.75 92 80.5 91.9584 80.375C91.7084 79.5834 65.25 55.4167 65 55.7084C64.625 56.125 57 95.875 57.25 96.125C57.3334 96.25 59.4584 95.4167 61.9584 94.375C64.4167 93.2917 66.6667 92.3334 66.9584 92.2084C67.2084 92.125 67.5417 92.4167 67.7084 92.9167C67.875 93.4167 68.9167 95.0417 70.0417 96.5417C71.2084 98.0417 72.0417 99.3334 71.9584 99.4167C71.75 99.625 45.25 111.208 45.1667 111.125C45.125 111.083 48.0834 94.5417 51.7084 74.375C55.3334 54.2084 58.3334 37.625 58.3334 37.5834C58.3334 37.2917 62.4584 41.125 80.3334 58.0834ZM154.167 55.5C164.25 65.1667 172.458 73.2084 172.417 73.4167C172.208 73.9584 137.5 110 137.167 110C137 110 135.333 108.458 133.417 106.542L130 103.125L132.292 101.292C133.542 100.292 135.083 98.7917 135.708 97.9584C136.333 97.125 141.458 91.6667 147.042 85.8334C152.667 80 157.792 74.625 158.458 73.9167L159.625 72.625L147.833 61.25L136.042 49.875L129.667 56.5C126.167 60.1667 120.917 65.625 118.042 68.6667L112.75 74.2084L118.75 80.2084L124.708 86.1667L123.5 87.25C122.833 87.8334 121.125 88.9167 119.75 89.6667L117.167 91L108.583 82.7084L99.9584 74.4584L103.667 70.6667C105.667 68.5834 113.583 60.375 121.208 52.375C128.875 44.4167 135.25 37.9167 135.458 37.9167C135.625 37.9167 144.042 45.8334 154.167 55.5ZM110.25 47.7084C114.25 48.4167 120.417 49.9584 120.417 50.2917C120.417 50.375 119.25 51.75 117.875 53.2917L115.292 56.125L113.542 55.5834C110.667 54.75 103.917 54.0834 100.917 54.375C95.1667 54.9167 88.1667 56.9584 85.375 58.9167C84.5 59.5 84.2917 59.375 81.4167 56.7917C79.7084 55.25 78.3334 53.9167 78.3334 53.75C78.3334 53.5834 80.1667 52.5834 82.4167 51.5417C86.375 49.6667 91.125 48.1667 94.9584 47.5C98.2917 46.9584 106.417 47.0417 110.25 47.7084ZM147.375 67.875L154.958 75.125L147.792 82.5417C143.875 86.625 140.625 89.9167 140.583 89.875C140.542 89.8334 140.875 88.375 141.333 86.6667C142.542 82.0834 142.833 73.5417 141.875 70C141 66.6667 139.208 62.9584 137.042 60.0834C136.125 58.875 135.5 57.7084 135.625 57.4584C135.958 56.9584 137 57.875 147.375 67.875ZM134.917 60.5C136.417 62.125 138.667 66.25 139.667 69.125C140.875 72.7084 140.958 78.2917 139.833 81.6667C136.375 92.0417 125.375 100.042 111.25 102.542C106.875 103.292 98.5 103.208 94 102.333C87.2917 101.042 80.7917 98.1667 75.8334 94.375C66.2917 87.0417 63.125 75.625 68 66.0834L68.8334 64.4584L71.5834 67.2084L74.3334 69.9584V74.2917C74.375 78.4167 74.4584 78.7084 75.9584 81.75C78.7084 87.375 85.375 92.25 93.125 94.375C97 95.4584 106.542 95.6667 110.875 94.7917C120.083 92.9584 127.375 88.0834 130.542 81.6667C132.833 77 132.583 70.5417 129.917 65.875L129.125 64.4584L130.083 63.375C132.25 60.875 133.5 59.5834 133.75 59.5834C133.917 59.5834 134.417 60 134.917 60.5ZM66.25 65.4167C63.6667 70.5 63.1667 77.3334 64.8334 84.375C65.125 85.75 65.4167 87.0834 65.4167 87.3334C65.4167 87.8334 60.9167 89.7917 60.5834 89.4584C60.375 89.25 65.1667 63.2917 65.6667 61.7084C65.8334 61.2084 66.0417 61.25 66.7084 61.9584L67.5834 62.7917L66.25 65.4167ZM108.458 62.0417C109.083 62.2917 108.375 63.2084 104.042 67.7084L98.875 73.0834L97.25 71.7917C96.375 71.0834 94.25 69.0834 92.5417 67.3334L89.4584 64.2084L92.4167 63.3334C94 62.8334 96.25 62.2917 97.375 62.0834C99.875 61.6667 107.458 61.625 108.458 62.0417ZM129.417 74.6667L130.417 76.6667L129.625 78.9584C129.167 80.2084 128.208 82.0834 127.458 83.125L126.083 85.0417L121.792 80.75C118.25 77.2084 117.625 76.375 118 75.875C118.292 75.5 119.917 73.75 121.625 71.9584L124.792 68.7084L126.583 70.6667C127.583 71.75 128.833 73.5417 129.417 74.6667ZM84.5834 80C84.5834 80.125 83.1667 80.7084 81.4584 81.3334L78.3334 82.4167L77.5417 80.9167C76.2084 78.25 76.1667 77.6667 77.125 75.4167L78.0417 73.2917L81.3334 76.5417C83.125 78.2917 84.5834 79.875 84.5834 80ZM108.25 89.4584L111.792 92.6667L110.583 93C106.75 94.0834 98.1667 93.7917 93.375 92.375L91.5417 91.875L97.5417 89.0834C100.833 87.5834 103.792 86.2917 104.125 86.2917C104.417 86.25 106.292 87.7084 108.25 89.4584Z" fill="#151515"/>
<path d="M195 36.1667C195 36.3334 193.333 43.75 191.25 52.625C189.208 61.5 187.5 68.9584 187.5 69.1667C187.5 69.4167 189.833 69.5834 193.667 69.5834H199.792L200.792 65.125C201.333 62.7084 201.958 60.0834 202.167 59.3334L202.542 57.9584L208.208 57.8334L213.917 57.7084L214.875 53.9584C215.375 51.875 215.833 49.9584 215.833 49.6667C215.833 49.2917 214.417 49.1667 210.167 49.1667H204.5L204.792 47.7917C205.417 44.7917 204.917 45 211 45H216.5L217.458 40.9167C218 38.7084 218.542 36.625 218.625 36.3334C218.792 35.9584 216.292 35.8334 206.917 35.8334C200.375 35.8334 195 35.9584 195 36.1667Z" fill="#151515"/>
<path d="M221.25 36.0417C221.25 36.1667 219.583 43.5417 217.5 52.4584C215.458 61.375 213.75 68.875 213.75 69.125C213.75 69.4584 215.458 69.5834 219.875 69.5L226 69.375L229.875 52.9167C231.958 43.875 233.708 36.3334 233.708 36.125C233.75 35.9584 230.958 35.8334 227.5 35.8334C224.083 35.8334 221.25 35.9167 221.25 36.0417Z" fill="#151515"/>
<path d="M290.917 40.3334C290.167 42.7917 289.583 45.0417 289.583 45.3334C289.583 45.7084 290.75 45.8334 293.958 45.8334C297.333 45.8334 298.333 45.9584 298.333 46.375C298.333 46.8334 296.917 52.9584 293.125 68.625L292.917 69.5834H299.125H305.333L307 62.5834C307.917 58.75 309.208 53.4167 309.833 50.7084L311 45.8334H315.292C319.375 45.8334 319.583 45.7917 319.792 44.875C320.167 43.1667 321.667 36.0834 321.667 35.9584C321.667 35.875 315.042 35.8334 306.958 35.8334H292.208L290.917 40.3334Z" fill="#151515"/>
<path d="M308.583 64C306.792 65.75 307.542 68.625 309.917 69.3333C311.042 69.625 311.5 69.5833 312.417 68.875C313.917 67.75 314.167 65.4167 312.958 64.2083C311.917 63.1667 309.5 63.0417 308.583 64ZM312.25 64.8333C312.958 65.5417 313.167 67.5 312.542 67.5C312.292 67.5 312.083 66.875 312 66.1667C311.917 65.0417 311.667 64.75 310.625 64.5417C309.375 64.25 309.375 64.25 310.5 64.2083C311.125 64.2083 311.917 64.4583 312.25 64.8333ZM310.75 67.9167C312.042 67.9583 312.167 68 311.5 68.375C309.875 69.3333 307.583 66.9167 308.625 65.3333C308.833 64.9583 309 65.3333 309.083 66.3333C309.208 67.8333 309.292 67.9167 310.75 67.9167Z" fill="#151515"/>
<path d="M199.792 76.7917C191.875 79.4167 187.5 85.9584 187.5 95.2084C187.5 101.25 189.333 105.958 193 109.417C196.208 112.417 198.958 113.458 204 113.667C207.625 113.833 208.458 113.708 210.333 112.917C211.5 112.417 212.708 111.75 212.958 111.417C213.708 110.542 214.083 110.708 214.375 112.083L214.667 113.333H217.958H221.25V103.125V92.9167H213.125H205V96.6667V100.417H208.542C212.458 100.417 212.625 100.583 211.25 102.792C210.125 104.708 208.167 105.583 205.208 105.625C203.292 105.625 202.333 105.375 201.125 104.667C196.25 101.583 195.417 91.4584 199.75 86.7501C201.125 85.2084 202.667 84.5834 205.125 84.5834C207.958 84.5834 209.875 85.7917 211.042 88.2084L211.833 90.0001H216.375H220.917L220.625 88.6251C219.542 83.2917 216.875 79.7084 212.417 77.7084C210.167 76.6667 209.167 76.4584 205.625 76.3751C202.958 76.2917 200.833 76.4584 199.792 76.7917Z" fill="#151515"/>
<path d="M263.208 76.6667C253.417 78.3334 246.25 88.5001 247.917 98.3751C250.5 113.667 269.125 119.708 280.042 108.792C290.667 98.1667 285.25 80.0001 270.542 76.8751C267.458 76.2084 266.208 76.1667 263.208 76.6667ZM265.292 86.0834C265.042 86.3334 260.708 85.4584 260.333 85.0834C259.833 84.5834 262.333 81.0001 263.875 80.0417L265.208 79.2084L265.333 82.5834C265.417 84.4167 265.375 86.0001 265.292 86.0834ZM271.875 82.7084C272.667 83.7917 273.208 84.8334 273.125 85.0001C273 85.1667 272.208 85.4584 271.375 85.6251C270.5 85.7501 269.375 86.0001 268.875 86.1251C267.917 86.3334 267.917 86.2501 267.917 82.7084V79.0834L269.208 79.8751C269.875 80.3334 271.125 81.5834 271.875 82.7084ZM258.625 82.4584L257.625 84.2084L256.667 83.4167L255.708 82.6251L257.5 81.5417C258.542 80.9584 259.417 80.5001 259.458 80.5834C259.542 80.6667 259.167 81.5001 258.625 82.4584ZM276.583 82.1251L277.542 82.8334L276.583 83.5001C275.708 84.1251 275.625 84.0834 274.708 82.4584C274.167 81.5001 273.75 80.6667 273.75 80.5834C273.75 80.2917 275.458 81.2501 276.583 82.1251ZM256.417 87.1667C256.208 90.3334 255.667 93.3334 255.25 93.3334C254.458 93.3334 250.833 90.9167 250.833 90.4167C250.833 89.8334 251.917 87.6667 253.042 85.9584L253.958 84.6251L255.208 85.4167C256.042 85.9584 256.458 86.5417 256.417 87.1667ZM281.625 88.2084C282.083 89.1667 282.5 90.1667 282.5 90.3751C282.5 90.8751 279.833 92.6667 278.458 93.0834C277.583 93.3751 277.5 93.2501 277.458 91.7917C277.458 90.9167 277.208 89.3751 276.958 88.3334L276.458 86.4584L277.875 85.5834L279.333 84.6667L280.042 85.5834C280.417 86.0417 281.125 87.2501 281.625 88.2084ZM263.25 88.2084L265.417 88.4584V91.9167V95.4167H264.167C262.583 95.4167 258.625 94.5834 258.167 94.1667C257.833 93.8334 258.542 88.5834 259.042 87.7917C259.167 87.5834 259.667 87.5417 260.167 87.6667C260.625 87.8334 262.042 88.0417 263.25 88.2084ZM274.917 90.5417C275.25 92.1251 275.375 93.6251 275.292 93.9584C275.083 94.4584 270.833 95.4167 268.833 95.4167C267.958 95.4167 267.917 95.2501 267.917 91.8751V88.3334L269.5 88.2917C270.333 88.2501 271.5 88.0834 272.083 87.9167C274.042 87.2917 274.333 87.5834 274.917 90.5417ZM255.625 97.9167C255.75 98.9584 255.958 100.417 256.083 101.125C256.208 102.083 256.125 102.5 255.75 102.5C255.417 102.5 254.167 101.875 252.917 101.125C250.458 99.6667 250.125 99.0001 250.042 95.5834L250 93.4167L252.667 94.7501C255.292 96.0001 255.375 96.0834 255.625 97.9167ZM283.042 98.3751C282.667 99.7501 280.292 101.583 277.958 102.292C277 102.583 276.958 102.5 277.25 101.25C277.375 100.5 277.5 99.0834 277.5 98.1251V96.3334L280.333 94.9167L283.125 93.5417L283.25 95.2917C283.333 96.2084 283.208 97.6251 283.042 98.3751ZM263.458 97.7084L265.417 97.9584V101.292V104.625L263.25 104.333C259.083 103.792 259 103.708 258.458 101.208C258.208 99.9584 257.958 98.4584 257.958 97.8751C257.917 96.7917 257.958 96.7917 259.708 97.1251C260.667 97.2917 262.333 97.5834 263.458 97.7084ZM275.208 98.6251C275.083 99.7501 274.75 101.333 274.542 102.167C274.167 103.625 274.042 103.708 272.167 103.958C271.083 104.083 269.708 104.333 269.083 104.417L267.917 104.667V101.292V97.9584L269.917 97.7084C271.5 97.5001 274.667 96.9167 275.375 96.7084C275.458 96.6667 275.375 97.5417 275.208 98.6251ZM258.292 108L259.542 110.417L258.208 109.75C256.833 109 252.5 104.792 252.5 104.167C252.5 104 253.542 104.208 254.75 104.708C256.792 105.542 257.167 105.875 258.292 108ZM280.125 105.042C279.292 106.458 277.042 108.542 275.083 109.708L273.792 110.417L275 108.042C276.083 105.875 276.458 105.542 278.417 104.708C279.625 104.25 280.667 103.792 280.75 103.792C280.833 103.75 280.542 104.333 280.125 105.042ZM264 106.667H265.417V109.167C265.417 110.542 265.25 111.667 265 111.667C264.333 111.667 261.75 109.208 260.833 107.625L259.958 106.125L261.292 106.417C262 106.542 263.25 106.667 264 106.667ZM272.917 106.458C272.917 107.667 269.375 111.667 268.333 111.667C268.083 111.667 267.917 110.542 267.917 109.208V106.708L269.917 106.542C271 106.458 272.125 106.375 272.417 106.333C272.667 106.292 272.917 106.333 272.917 106.458Z" fill="#151515"/>
<path d="M222.917 95.2084V113.333H236.042H249.167V109.167V105H240.833H232.5V91.0417V77.0834H227.708H222.917V95.2084Z" fill="#151515"/>
<path d="M287.083 95.2084V113.417L297.833 113.208C304.042 113.125 309.167 112.833 310 112.583C312.667 111.708 315.292 109.75 316.542 107.625C317.542 105.875 317.708 105.208 317.708 102.292C317.708 98.4584 316.792 96.2084 314.5 94.4167L313.167 93.3751L314.042 92.4167C316.958 89.2917 316.958 83.2084 314.042 80.0834C313.542 79.5417 312.375 78.6667 311.458 78.2084C309.875 77.3334 309.125 77.2917 298.458 77.1667L287.083 77.0417V95.2084ZM306.042 85.8334C307.375 87.0834 307.375 88.5001 306.042 89.7917C305.125 90.7501 304.75 90.8334 300.833 90.8334H296.667V87.6667V84.5001L300.833 84.6667C304.5 84.7917 305.083 84.9167 306.042 85.8334ZM306.625 98.5417C307.958 99.2084 308.333 99.9167 308.333 101.708C308.333 104.667 306.792 105.417 300.792 105.417H296.667V101.667V97.9167H301.042C304.125 97.9167 305.833 98.1251 306.625 98.5417Z" fill="#151515"/>
<path d="M322.167 94.9167C318.458 104.75 315.417 112.875 315.417 113.042C315.417 113.208 317.542 113.333 320.167 113.333H324.958L325.75 111.125C326.208 109.958 326.792 108.167 327.083 107.167L327.625 105.417H333.375H339.083L340.417 109.375L341.75 113.333H346.75C350.583 113.333 351.708 113.208 351.542 112.792C351.458 112.542 348.375 104.375 344.792 94.6667L338.208 77.0834H333.542H328.917L322.167 94.9167ZM336.25 97.5834C336.25 97.7917 334.958 97.9167 333.375 97.9167H330.458L331.667 94.4584C332.292 92.5834 332.958 90.7084 333.125 90.25C333.375 89.6667 333.792 90.4584 334.875 93.375C335.625 95.5417 336.25 97.4167 336.25 97.5834Z" fill="#151515"/>
<path d="M352.917 95.2084V113.333H365.833H378.75V109.167V105H370.417H362.083V91.0417V77.0834H357.5H352.917V95.2084Z" fill="#151515"/>
</svg>
