<svg width="80" height="80" viewBox="0 0 80 80" fill="none" xmlns="http://www.w3.org/2000/svg">
<path fill-rule="evenodd" clip-rule="evenodd" d="M22.8582 10C19.4489 10 16.1791 11.354 13.7678 13.7643C11.3566 16.1746 10.0013 19.4439 10 22.8533V57.1418C10 60.552 11.3547 63.8225 13.7661 66.2339C16.1775 68.6453 19.448 70 22.8582 70H57.1467C60.5561 69.9987 63.8254 68.6434 66.2357 66.2322C68.646 63.8209 70 60.5512 70 57.1418V22.8533C69.9987 19.4448 68.6441 16.1762 66.2339 13.7661C63.8237 11.3559 60.5552 10.0013 57.1467 10H22.8582ZM60.8452 22.873C60.8452 23.8552 60.455 24.7972 59.7605 25.4917C59.066 26.1862 58.124 26.5764 57.1418 26.5764C56.1596 26.5764 55.2176 26.1862 54.5231 25.4917C53.8286 24.7972 53.4384 23.8552 53.4384 22.873C53.4384 21.8908 53.8286 20.9488 54.5231 20.2543C55.2176 19.5598 56.1596 19.1696 57.1418 19.1696C58.124 19.1696 59.066 19.5598 59.7605 20.2543C60.455 20.9488 60.8452 21.8908 60.8452 22.873ZM40.0074 29.7268C37.2834 29.7268 34.671 30.8089 32.7449 32.735C30.8187 34.6611 29.7366 37.2736 29.7366 39.9975C29.7366 42.7215 30.8187 45.3339 32.7449 47.2601C34.671 49.1862 37.2834 50.2683 40.0074 50.2683C42.7314 50.2683 45.3438 49.1862 47.2699 47.2601C49.1961 45.3339 50.2782 42.7215 50.2782 39.9975C50.2782 37.2736 49.1961 34.6611 47.2699 32.735C45.3438 30.8089 42.7314 29.7268 40.0074 29.7268ZM24.7938 39.9975C24.7938 35.964 26.3962 32.0956 29.2483 29.2434C32.1005 26.3912 35.9689 24.7889 40.0025 24.7889C44.036 24.7889 47.9044 26.3912 50.7566 29.2434C53.6088 32.0956 55.2111 35.964 55.2111 39.9975C55.2111 44.0311 53.6088 47.8995 50.7566 50.7517C47.9044 53.6038 44.036 55.2062 40.0025 55.2062C35.9689 55.2062 32.1005 53.6038 29.2483 50.7517C26.3962 47.8995 24.7938 44.0311 24.7938 39.9975Z" fill="#0C5EF6"/>
</svg>
