<svg width="20" height="20" viewBox="0 0 20 20" fill="none" xmlns="http://www.w3.org/2000/svg">
<path d="M16.6667 3.33325H3.33341C2.41675 3.33325 1.66675 4.08325 1.66675 4.99992V14.9999C1.66675 15.9166 2.41675 16.6666 3.33341 16.6666H16.6667C17.5834 16.6666 18.3334 15.9166 18.3334 14.9999V4.99992C18.3334 4.08325 17.5834 3.33325 16.6667 3.33325ZM16.3334 6.87492L10.8834 10.2833C10.3417 10.6249 9.65841 10.6249 9.11675 10.2833L3.66675 6.87492C3.58319 6.82801 3.51001 6.76464 3.45166 6.68863C3.3933 6.61262 3.35097 6.52557 3.32723 6.43273C3.30349 6.33989 3.29883 6.2432 3.31355 6.14851C3.32826 6.05382 3.36203 5.9631 3.41282 5.88184C3.4636 5.80058 3.53035 5.73046 3.60902 5.67575C3.68769 5.62103 3.77664 5.58284 3.87049 5.5635C3.96435 5.54416 4.06115 5.54406 4.15504 5.56321C4.24894 5.58236 4.33797 5.62036 4.41675 5.67492L10.0001 9.16658L15.5834 5.67492C15.6622 5.62036 15.7512 5.58236 15.8451 5.56321C15.939 5.54406 16.0358 5.54416 16.1297 5.5635C16.2235 5.58284 16.3125 5.62103 16.3911 5.67575C16.4698 5.73046 16.5366 5.80058 16.5873 5.88184C16.6381 5.9631 16.6719 6.05382 16.6866 6.14851C16.7013 6.2432 16.6967 6.33989 16.6729 6.43273C16.6492 6.52557 16.6069 6.61262 16.5485 6.68863C16.4901 6.76464 16.417 6.82801 16.3334 6.87492Z" fill="#0C5EF6"/>
</svg>
